<svg width="168px" height="30px" viewBox="0 0 168 30" version="1.1" xmlns="http://www.w3.org/2000/svg" xmlns:xlink="http://www.w3.org/1999/xlink">
    <!-- Generator: Sketch 55.2 (78181) - https://sketchapp.com -->
    <title>Group 16</title>
    <desc>Created with Sketch.</desc>
    <g id="Page-1" stroke="none" stroke-width="1" fill="none" fill-rule="evenodd">
        <g id="Group-16" transform="translate(0.994098, 0.000000)">
            <path d="M121.648677,8.0257986 L124.623304,6.89552784 L124.623304,29.1898996 L109.347125,29.1898996 L107.813812,27.5163979 L107.813812,13.7209614 L109.903499,11.7495589 L121.648677,11.7495589 L121.648677,8.0257986 Z M110.735869,14.6365683 L110.735869,26.3072711 L121.648677,26.3072711 L121.648677,14.6365683 L110.735869,14.6365683 Z" id="Combined-Shape" fill="#FFFFFF"></path>
            <polygon id="Path" fill="#ED1C24" points="124.531305 -7.10542736e-14 121.648677 -7.10542736e-14 121.648677 4.66565257 124.531305 3.55290538"></polygon>
            <polygon id="Path" fill="#FFFFFF" points="10.8514755 14.1590508 10.8514755 29.1898996 7.9513234 29.1898996 7.9513234 14.1590508 -5.1159077e-13 14.1590508 -5.1159077e-13 11.784606 18.8378461 11.784606 18.8378461 14.1590508"></polygon>
            <polygon id="Path" fill="#FFFFFF" points="20.0163067 29.1898996 20.0163067 11.784606 36.7776088 11.784606 36.7776088 14.1240037 22.9296015 14.1240037 22.9296015 18.9780347 31.3934895 18.9780347 31.3934895 21.2823852 22.9296015 21.2823852 22.9296015 26.8023121 36.9090356 26.8023121 36.9090356 29.1898996"></polygon>
            <path d="M54.8487983,14.1590508 L42.783815,14.1590508 L42.783815,26.767265 L54.8487983,26.767265 L54.8487983,22.3863706 L57.766474,22.9953149 L57.766474,25.0543353 C57.766474,26.6577426 57.4860967,27.7442044 56.9253423,28.3137207 C56.3645878,28.883237 55.2941892,29.1752966 53.7141466,29.1898996 L43.9666565,29.1898996 C42.3836933,29.1898996 41.3089139,28.89784 40.7423182,28.3137207 C40.1684211,27.7398235 39.8661393,26.6533617 39.8661393,25.063097 L39.8661393,15.9114086 C39.8661393,14.316763 40.1508975,13.2346821 40.7423182,12.656404 C41.333739,12.078126 42.3851536,11.7802251 43.9666565,11.7802251 L53.7141466,11.7802251 C55.2971098,11.7802251 56.3675084,12.0722848 56.9253423,12.656404 C57.4831761,13.2405233 57.7635534,14.3255248 57.766474,15.9114086 L57.766474,17.5586249 L54.8487983,18.1018558 L54.8487983,14.1590508 Z" id="Path" fill="#FFFFFF"></path>
            <polygon id="Path" fill="#FFFFFF" points="61.6961363 29.1898996 61.6961363 11.784606 64.6050502 11.784606 64.6050502 18.8991786 78.3216307 18.8991786 78.3216307 11.784606 81.2174019 11.784606 81.2174019 29.1898996 78.3216307 29.1898996 78.3216307 21.3042896 64.6050502 21.3042896 64.6050502 29.1898996"></polygon>
            <path d="M98.4912686,29.1898996 L98.4912686,25.0411926 L85.3179191,25.0411926 L85.3179191,22.8814116 L97.8648007,11.5874658 L101.154852,11.5874658 L101.154852,22.8814116 L105.141466,22.8814116 L105.141466,25.0411926 L101.154852,25.0411926 L101.154852,29.1898996 L98.4912686,29.1898996 Z M98.4912686,22.8814116 L98.4912686,13.6815333 L88.3801643,22.8814116 L98.4912686,22.8814116 Z" id="Shape" fill="#FFFFFF" fill-rule="nonzero"></path>
            <polygon id="Path" fill="#FFFFFF" points="128.395254 29.1898996 128.395254 11.784606 145.156556 11.784606 145.156556 14.1240037 131.308549 14.1240037 131.308549 18.9780347 139.772437 18.9780347 139.772437 21.2823852 131.308549 21.2823852 131.308549 26.8023121 145.287983 26.8023121 145.287983 29.1898996"></polygon>
            <polygon id="Path" fill="#FFFFFF" points="154.601765 29.1898996 145.099605 11.784606 148.231944 11.784606 155.920414 26.2897475 163.262793 11.784606 166.145421 11.784606 157.041923 29.1898996"></polygon>
        </g>
    </g>
</svg>